<mxfile host="app.diagrams.net" modified="2023-07-16T15:16:03.554Z" agent="Mozilla/5.0 (Windows NT 10.0; Win64; x64) AppleWebKit/537.36 (KHTML, like Gecko) Chrome/114.0.0.0 Safari/537.36" etag="4_Jk1H9nCtaZsOk0ayqf" version="21.6.1" type="github">
  <diagram name="Page-1" id="QgDUXTsIdmNGRrRkXoup">
    <mxGraphModel dx="1354" dy="566" grid="1" gridSize="10" guides="1" tooltips="1" connect="1" arrows="1" fold="1" page="1" pageScale="1" pageWidth="850" pageHeight="1100" math="0" shadow="0">
      <root>
        <mxCell id="0" />
        <mxCell id="1" parent="0" />
        <mxCell id="yyOuMQv5E4QeArJMUyc3-1" value="" style="rounded=0;whiteSpace=wrap;html=1;" vertex="1" parent="1">
          <mxGeometry x="200" y="100" width="350" height="250" as="geometry" />
        </mxCell>
        <mxCell id="yyOuMQv5E4QeArJMUyc3-5" value="" style="endArrow=none;dashed=1;html=1;dashPattern=1 3;strokeWidth=2;rounded=0;entryX=0.997;entryY=0.644;entryDx=0;entryDy=0;entryPerimeter=0;" edge="1" parent="1" target="yyOuMQv5E4QeArJMUyc3-1">
          <mxGeometry width="50" height="50" relative="1" as="geometry">
            <mxPoint x="230" y="260" as="sourcePoint" />
            <mxPoint x="280" y="210" as="targetPoint" />
          </mxGeometry>
        </mxCell>
        <mxCell id="yyOuMQv5E4QeArJMUyc3-6" value="" style="endArrow=none;dashed=1;html=1;rounded=0;entryX=-0.003;entryY=0.648;entryDx=0;entryDy=0;entryPerimeter=0;exitX=0.169;exitY=1;exitDx=0;exitDy=0;exitPerimeter=0;" edge="1" parent="1" source="yyOuMQv5E4QeArJMUyc3-1" target="yyOuMQv5E4QeArJMUyc3-1">
          <mxGeometry width="50" height="50" relative="1" as="geometry">
            <mxPoint x="260" y="340" as="sourcePoint" />
            <mxPoint x="320" y="300" as="targetPoint" />
            <Array as="points">
              <mxPoint x="260" y="310" />
              <mxPoint x="260" y="262" />
            </Array>
          </mxGeometry>
        </mxCell>
        <mxCell id="yyOuMQv5E4QeArJMUyc3-7" value="" style="endArrow=none;dashed=1;html=1;rounded=0;" edge="1" parent="1">
          <mxGeometry width="50" height="50" relative="1" as="geometry">
            <mxPoint x="320" y="350" as="sourcePoint" />
            <mxPoint x="320" y="260" as="targetPoint" />
            <Array as="points">
              <mxPoint x="320" y="300" />
            </Array>
          </mxGeometry>
        </mxCell>
        <mxCell id="yyOuMQv5E4QeArJMUyc3-8" value="" style="endArrow=none;dashed=1;html=1;rounded=0;exitX=0.52;exitY=1;exitDx=0;exitDy=0;exitPerimeter=0;" edge="1" parent="1" source="yyOuMQv5E4QeArJMUyc3-1">
          <mxGeometry width="50" height="50" relative="1" as="geometry">
            <mxPoint x="430" y="340" as="sourcePoint" />
            <mxPoint x="380" y="260" as="targetPoint" />
            <Array as="points">
              <mxPoint x="380" y="310" />
            </Array>
          </mxGeometry>
        </mxCell>
        <mxCell id="yyOuMQv5E4QeArJMUyc3-9" value="" style="endArrow=none;dashed=1;html=1;rounded=0;exitX=0.686;exitY=1.012;exitDx=0;exitDy=0;exitPerimeter=0;" edge="1" parent="1" source="yyOuMQv5E4QeArJMUyc3-1">
          <mxGeometry width="50" height="50" relative="1" as="geometry">
            <mxPoint x="490" y="350" as="sourcePoint" />
            <mxPoint x="440" y="260" as="targetPoint" />
            <Array as="points">
              <mxPoint x="440" y="310" />
            </Array>
          </mxGeometry>
        </mxCell>
        <mxCell id="yyOuMQv5E4QeArJMUyc3-10" value="" style="endArrow=none;dashed=1;html=1;rounded=0;exitX=0.889;exitY=0.992;exitDx=0;exitDy=0;exitPerimeter=0;" edge="1" parent="1" source="yyOuMQv5E4QeArJMUyc3-1">
          <mxGeometry width="50" height="50" relative="1" as="geometry">
            <mxPoint x="460" y="310" as="sourcePoint" />
            <mxPoint x="510" y="260" as="targetPoint" />
          </mxGeometry>
        </mxCell>
        <mxCell id="yyOuMQv5E4QeArJMUyc3-12" value="" style="endArrow=none;dashed=1;html=1;rounded=0;entryX=0.186;entryY=0.004;entryDx=0;entryDy=0;entryPerimeter=0;" edge="1" parent="1" target="yyOuMQv5E4QeArJMUyc3-1">
          <mxGeometry width="50" height="50" relative="1" as="geometry">
            <mxPoint x="265" y="260" as="sourcePoint" />
            <mxPoint x="450" y="270" as="targetPoint" />
          </mxGeometry>
        </mxCell>
        <mxCell id="yyOuMQv5E4QeArJMUyc3-13" value="" style="endArrow=none;dashed=1;html=1;rounded=0;exitX=-0.006;exitY=0.328;exitDx=0;exitDy=0;exitPerimeter=0;" edge="1" parent="1" source="yyOuMQv5E4QeArJMUyc3-1">
          <mxGeometry width="50" height="50" relative="1" as="geometry">
            <mxPoint x="400" y="320" as="sourcePoint" />
            <mxPoint x="270" y="182" as="targetPoint" />
            <Array as="points" />
          </mxGeometry>
        </mxCell>
      </root>
    </mxGraphModel>
  </diagram>
</mxfile>
